<svg xmlns="http://www.w3.org/2000/svg" width="16" height="16" viewBox="0 0 16 16" fill="none">
    <g clip-path="url(#clip0_1_7050)">
        <path
            d="M15.7531 3.11112C15.4451 2.58178 14.8784 2.22223 14.222 2.22223H7.99976V3.11112H15.7531ZM-0.000244141 11.1111H15.9998V12H-0.000244141V11.1111ZM7.99976 7.55556H15.9998V8.44445H7.99976V7.55556ZM7.99976 5.77778H15.9998V6.66667H7.99976V5.77778ZM-0.000244141 9.33334H15.9998V10.2222H-0.000244141V9.33334ZM1.77753 13.7778H14.222C14.8784 13.7778 15.4451 13.4182 15.7531 12.8889H0.246423C0.554423 13.4182 1.12109 13.7778 1.77753 13.7778ZM7.99976 4.00001H15.9998V4.8889H7.99976V4.00001Z"
            fill="#B22334" />
        <path
            d="M0.0299781 12.3017C0.0375336 12.3431 0.0459781 12.3844 0.0562003 12.4249C0.0677559 12.4697 0.0819781 12.5129 0.0970892 12.5564C0.136645 12.6715 0.184645 12.7826 0.245089 12.8866L0.246423 12.8889H15.7531L15.754 12.8871C15.8136 12.7823 15.863 12.672 15.9015 12.5577C15.9308 12.4743 15.9534 12.3887 15.9691 12.3017C15.9873 12.204 15.9998 12.1035 15.9998 12H-0.000244141C-0.000244141 12.1035 0.0122003 12.2035 0.0299781 12.3017ZM-0.000244141 10.2222H15.9998V11.1111H-0.000244141V10.2222ZM-0.000244141 8.44442V9.3333H15.9998V8.44442H7.99976H-0.000244141ZM7.99976 6.66664H15.9998V7.55553H7.99976V6.66664ZM7.99976 4.88886H15.9998V5.77775H7.99976V4.88886ZM0.0566448 3.57508C0.0677559 3.52975 0.0833114 3.48664 0.0975336 3.44308C0.0820994 3.4865 0.0684582 3.53054 0.0566448 3.57508ZM7.99976 3.99997H15.9998C15.9998 3.89642 15.9873 3.79597 15.9691 3.69775C15.9535 3.61069 15.9308 3.52506 15.9011 3.44175C15.8626 3.327 15.813 3.21626 15.7531 3.11108H7.99976V3.99997Z"
            fill="#DBDBDB" />
        <path
            d="M7.99976 2.22223H1.77753C1.30604 2.22223 0.853853 2.40953 0.520455 2.74293C0.187057 3.07633 -0.000244141 3.52851 -0.000244141 4.00001L-0.000244141 8.44445H7.99976V2.22223Z"
            fill="#3C3B6E" />
        <path
            d="M0.890625 3.43399L1.16529 3.63355L1.0604 3.95577L1.33462 3.75666L1.60929 3.95577L1.5044 3.63355L1.77907 3.43399H1.43951L1.33462 3.11133L1.23018 3.43399H0.890625ZM1.77951 4.32288L2.05418 4.52244L1.94929 4.84466L2.22351 4.64555L2.49818 4.84466L2.39329 4.52244L2.66796 4.32288H2.3284L2.22351 4.00022L2.11907 4.32288H1.77951ZM3.55729 4.32288L3.83196 4.52244L3.72707 4.84466L4.00129 4.64555L4.27596 4.84466L4.17107 4.52244L4.44573 4.32288H4.10618L4.00129 4.00022L3.89685 4.32288H3.55729ZM5.33507 4.32288L5.60973 4.52244L5.50485 4.84466L5.77907 4.64555L6.05373 4.84466L5.94885 4.52244L6.22351 4.32288H5.88396L5.77907 4.00022L5.67462 4.32288H5.33507ZM1.77951 6.10066L2.05418 6.30022L1.94929 6.62244L2.22351 6.42333L2.49818 6.62244L2.39329 6.30022L2.66796 6.10066H2.3284L2.22351 5.778L2.11907 6.10066H1.77951ZM3.55729 6.10066L3.83196 6.30022L3.72707 6.62244L4.00129 6.42333L4.27596 6.62244L4.17107 6.30022L4.44573 6.10066H4.10618L4.00129 5.778L3.89685 6.10066H3.55729ZM5.33507 6.10066L5.60973 6.30022L5.50485 6.62244L5.77907 6.42333L6.05373 6.62244L5.94885 6.30022L6.22351 6.10066H5.88396L5.77907 5.778L5.67462 6.10066H5.33507ZM2.6684 3.43399L2.94307 3.63355L2.83818 3.95577L3.1124 3.75666L3.38707 3.95577L3.28218 3.63355L3.55685 3.43399H3.21729L3.1124 3.11133L3.00796 3.43399H2.6684ZM4.44618 3.43399L4.72085 3.63355L4.61596 3.95577L4.89018 3.75666L5.16485 3.95577L5.05996 3.63355L5.33462 3.43399H4.99507L4.89018 3.11133L4.78573 3.43399H4.44618ZM6.22396 3.43399L6.49862 3.63355L6.39373 3.95577L6.66796 3.75666L6.94262 3.95577L6.83773 3.63355L7.1124 3.43399H6.77285L6.66796 3.11133L6.56351 3.43399H6.22396ZM0.890625 5.21177L1.16529 5.41133L1.0604 5.73355L1.33462 5.53444L1.60929 5.73355L1.5044 5.41133L1.77907 5.21177H1.43951L1.33462 4.88911L1.23018 5.21177H0.890625ZM2.83818 5.73355L3.1124 5.53444L3.38707 5.73355L3.28218 5.41133L3.55685 5.21177H3.21729L3.1124 4.88911L3.00796 5.21177H2.6684L2.94307 5.41133L2.83818 5.73355ZM4.44618 5.21177L4.72085 5.41133L4.61596 5.73355L4.89018 5.53444L5.16485 5.73355L5.05996 5.41133L5.33462 5.21177H4.99507L4.89018 4.88911L4.78573 5.21177H4.44618ZM6.22396 5.21177L6.49862 5.41133L6.39373 5.73355L6.66796 5.53444L6.94262 5.73355L6.83773 5.41133L7.1124 5.21177H6.77285L6.66796 4.88911L6.56351 5.21177H6.22396ZM0.890625 6.98955L1.16529 7.18911L1.0604 7.51133L1.33462 7.31222L1.60929 7.51133L1.5044 7.18911L1.77907 6.98955H1.43951L1.33462 6.66688L1.23018 6.98955H0.890625ZM2.83818 7.51133L3.1124 7.31222L3.38707 7.51133L3.28218 7.18911L3.55685 6.98955H3.21729L3.1124 6.66688L3.00796 6.98955H2.6684L2.94307 7.18911L2.83818 7.51133ZM4.44618 6.98955L4.72085 7.18911L4.61596 7.51133L4.89018 7.31222L5.16485 7.51133L5.05996 7.18911L5.33462 6.98955H4.99507L4.89018 6.66688L4.78573 6.98955H4.44618ZM6.22396 6.98955L6.49862 7.18911L6.39373 7.51133L6.66796 7.31222L6.94262 7.51133L6.83773 7.18911L7.1124 6.98955H6.77285L6.66796 6.66688L6.56351 6.98955H6.22396Z"
            fill="white" />
    </g>
    <defs>
        <clipPath id="clip0_1_7050">
            <rect width="16" height="16" fill="white" />
        </clipPath>
    </defs>
</svg>